<svg width="63" height="18" viewBox="0 0 63 18" fill="none" xmlns="http://www.w3.org/2000/svg">
<rect width="63" height="18" rx="3" fill="#2290E2"/>
<path d="M9.756 4.624C10.636 4.624 11.408 4.796 12.072 5.14C12.744 5.484 13.26 5.976 13.62 6.616C13.988 7.248 14.172 7.984 14.172 8.824C14.172 9.664 13.988 10.4 13.62 11.032C13.26 11.656 12.744 12.14 12.072 12.484C11.408 12.828 10.636 13 9.756 13H6.828V4.624H9.756ZM9.696 11.572C10.576 11.572 11.256 11.332 11.736 10.852C12.216 10.372 12.456 9.696 12.456 8.824C12.456 7.952 12.216 7.272 11.736 6.784C11.256 6.288 10.576 6.04 9.696 6.04H8.508V11.572H9.696ZM21.6096 9.532C21.6096 9.772 21.5936 9.988 21.5616 10.18H16.7016C16.7416 10.66 16.9096 11.036 17.2056 11.308C17.5016 11.58 17.8656 11.716 18.2976 11.716C18.9216 11.716 19.3656 11.448 19.6296 10.912H21.4416C21.2496 11.552 20.8816 12.08 20.3376 12.496C19.7936 12.904 19.1256 13.108 18.3336 13.108C17.6936 13.108 17.1176 12.968 16.6056 12.688C16.1016 12.4 15.7056 11.996 15.4176 11.476C15.1376 10.956 14.9976 10.356 14.9976 9.676C14.9976 8.988 15.1376 8.384 15.4176 7.864C15.6976 7.344 16.0896 6.944 16.5936 6.664C17.0976 6.384 17.6776 6.244 18.3336 6.244C18.9656 6.244 19.5296 6.38 20.0256 6.652C20.5296 6.924 20.9176 7.312 21.1896 7.816C21.4696 8.312 21.6096 8.884 21.6096 9.532ZM19.8696 9.052C19.8616 8.62 19.7056 8.276 19.4016 8.02C19.0976 7.756 18.7256 7.624 18.2856 7.624C17.8696 7.624 17.5176 7.752 17.2296 8.008C16.9496 8.256 16.7776 8.604 16.7136 9.052H19.8696ZM25.3798 13.108C24.8358 13.108 24.3478 13.012 23.9158 12.82C23.4838 12.62 23.1398 12.352 22.8838 12.016C22.6358 11.68 22.4998 11.308 22.4758 10.9H24.1678C24.1998 11.156 24.3238 11.368 24.5398 11.536C24.7638 11.704 25.0398 11.788 25.3678 11.788C25.6878 11.788 25.9358 11.724 26.1118 11.596C26.2958 11.468 26.3878 11.304 26.3878 11.104C26.3878 10.888 26.2758 10.728 26.0518 10.624C25.8358 10.512 25.4878 10.392 25.0078 10.264C24.5118 10.144 24.1038 10.02 23.7838 9.892C23.4718 9.764 23.1998 9.568 22.9678 9.304C22.7438 9.04 22.6318 8.684 22.6318 8.236C22.6318 7.868 22.7358 7.532 22.9438 7.228C23.1598 6.924 23.4638 6.684 23.8558 6.508C24.2558 6.332 24.7238 6.244 25.2598 6.244C26.0518 6.244 26.6838 6.444 27.1558 6.844C27.6278 7.236 27.8878 7.768 27.9358 8.44H26.3278C26.3038 8.176 26.1918 7.968 25.9918 7.816C25.7998 7.656 25.5398 7.576 25.2118 7.576C24.9078 7.576 24.6718 7.632 24.5038 7.744C24.3438 7.856 24.2638 8.012 24.2638 8.212C24.2638 8.436 24.3758 8.608 24.5998 8.728C24.8238 8.84 25.1718 8.956 25.6438 9.076C26.1238 9.196 26.5198 9.32 26.8318 9.448C27.1438 9.576 27.4118 9.776 27.6358 10.048C27.8678 10.312 27.9878 10.664 27.9958 11.104C27.9958 11.488 27.8878 11.832 27.6718 12.136C27.4638 12.44 27.1598 12.68 26.7598 12.856C26.3678 13.024 25.9078 13.108 25.3798 13.108ZM33.3109 13L31.0549 10.168V13H29.3749V4.12H31.0549V9.172L33.2869 6.352H35.4709L32.5429 9.688L35.4949 13H33.3109ZM38.3387 7.732V10.948C38.3387 11.172 38.3907 11.336 38.4947 11.44C38.6067 11.536 38.7907 11.584 39.0467 11.584H39.8267V13H38.7707C37.3547 13 36.6467 12.312 36.6467 10.936V7.732H35.8547V6.352H36.6467V4.708H38.3387V6.352H39.8267V7.732H38.3387ZM43.987 13.108C43.347 13.108 42.771 12.968 42.259 12.688C41.747 12.4 41.343 11.996 41.047 11.476C40.759 10.956 40.615 10.356 40.615 9.676C40.615 8.996 40.763 8.396 41.059 7.876C41.363 7.356 41.775 6.956 42.295 6.676C42.815 6.388 43.395 6.244 44.035 6.244C44.675 6.244 45.255 6.388 45.775 6.676C46.295 6.956 46.703 7.356 46.999 7.876C47.303 8.396 47.455 8.996 47.455 9.676C47.455 10.356 47.299 10.956 46.987 11.476C46.683 11.996 46.267 12.4 45.739 12.688C45.219 12.968 44.635 13.108 43.987 13.108ZM43.987 11.644C44.291 11.644 44.575 11.572 44.839 11.428C45.111 11.276 45.327 11.052 45.487 10.756C45.647 10.46 45.727 10.1 45.727 9.676C45.727 9.044 45.559 8.56 45.223 8.224C44.895 7.88 44.491 7.708 44.011 7.708C43.531 7.708 43.127 7.88 42.799 8.224C42.479 8.56 42.319 9.044 42.319 9.676C42.319 10.308 42.475 10.796 42.787 11.14C43.107 11.476 43.507 11.644 43.987 11.644ZM50.3674 7.312C50.5834 7.008 50.8794 6.756 51.2554 6.556C51.6394 6.348 52.0754 6.244 52.5634 6.244C53.1314 6.244 53.6434 6.384 54.0994 6.664C54.5634 6.944 54.9274 7.344 55.1914 7.864C55.4634 8.376 55.5994 8.972 55.5994 9.652C55.5994 10.332 55.4634 10.936 55.1914 11.464C54.9274 11.984 54.5634 12.388 54.0994 12.676C53.6434 12.964 53.1314 13.108 52.5634 13.108C52.0754 13.108 51.6434 13.008 51.2674 12.808C50.8994 12.608 50.5994 12.356 50.3674 12.052V16.168H48.6874V6.352H50.3674V7.312ZM53.8834 9.652C53.8834 9.252 53.7994 8.908 53.6314 8.62C53.4714 8.324 53.2554 8.1 52.9834 7.948C52.7194 7.796 52.4314 7.72 52.1194 7.72C51.8154 7.72 51.5274 7.8 51.2554 7.96C50.9914 8.112 50.7754 8.336 50.6074 8.632C50.4474 8.928 50.3674 9.276 50.3674 9.676C50.3674 10.076 50.4474 10.424 50.6074 10.72C50.7754 11.016 50.9914 11.244 51.2554 11.404C51.5274 11.556 51.8154 11.632 52.1194 11.632C52.4314 11.632 52.7194 11.552 52.9834 11.392C53.2554 11.232 53.4714 11.004 53.6314 10.708C53.7994 10.412 53.8834 10.06 53.8834 9.652Z" fill="white"/>
</svg>
