<svg width="44" height="18" viewBox="0 0 44 18" fill="none" xmlns="http://www.w3.org/2000/svg">
<rect width="44" height="18" rx="3" fill="#2290E2"/>
<path d="M11.712 4.624V10.504C11.712 11.32 11.476 11.956 11.004 12.412C10.532 12.86 9.9 13.084 9.108 13.084C8.308 13.084 7.66 12.852 7.164 12.388C6.676 11.924 6.432 11.276 6.432 10.444H8.112C8.12 10.804 8.204 11.084 8.364 11.284C8.532 11.484 8.772 11.584 9.084 11.584C9.388 11.584 9.62 11.488 9.78 11.296C9.94 11.104 10.02 10.84 10.02 10.504V4.624H11.712ZM18.8078 11.404H15.4718L14.9198 13H13.1558L16.1678 4.612H18.1238L21.1358 13H19.3598L18.8078 11.404ZM18.3518 10.06L17.1398 6.556L15.9277 10.06H18.3518ZM29.7856 4.624L26.7136 13H24.6736L21.6016 4.624H23.4016L25.7056 11.284L27.9976 4.624H29.7856ZM35.9288 11.404H32.5928L32.0408 13H30.2768L33.2888 4.612H35.2448L38.2568 13H36.4808L35.9288 11.404ZM35.4728 10.06L34.2608 6.556L33.0488 10.06H35.4728Z" fill="white"/>
</svg>
