<svg width="22" height="26" viewBox="0 0 22 26" fill="none" xmlns="http://www.w3.org/2000/svg">
<path d="M20.4286 1.625H1.56652C0.702232 1.625 0 2.36133 0 3.26523V22.7348C0 23.6387 0.702232 24.375 1.56652 24.375H20.4286C21.2929 24.375 22 23.6387 22 22.7348V3.26523C22 2.36133 21.2929 1.625 20.4286 1.625ZM6.64911 21.125H3.38839V10.268H6.65402V21.125H6.64911ZM5.01875 8.78516C3.97277 8.78516 3.12812 7.90664 3.12812 6.83008C3.12812 5.75352 3.97277 4.875 5.01875 4.875C6.05982 4.875 6.90937 5.75352 6.90937 6.83008C6.90937 7.91172 6.06473 8.78516 5.01875 8.78516ZM18.8719 21.125H15.6112V15.8438C15.6112 14.5844 15.5866 12.9645 13.917 12.9645C12.2179 12.9645 11.9576 14.3355 11.9576 15.7523V21.125H8.69688V10.268H11.825V11.7508H11.8692C12.3062 10.8977 13.3719 9.99883 14.958 9.99883C18.258 9.99883 18.8719 12.2484 18.8719 15.1734V21.125Z" fill="black"/>
</svg>
