<svg width="27" height="27" viewBox="0 0 27 27" fill="none" xmlns="http://www.w3.org/2000/svg">
<path d="M26.4885 10.0617C26.6941 9.89824 27 10.0512 27 10.3096V21.0938C27 22.4912 25.8662 23.625 24.4688 23.625H2.53125C1.13379 23.625 0 22.4912 0 21.0938V10.3148C0 10.0512 0.300586 9.90352 0.511523 10.067C1.69277 10.9846 3.25898 12.15 8.63789 16.0576C9.75059 16.8697 11.6279 18.5783 13.5 18.5678C15.3826 18.5836 17.2969 16.8381 18.3674 16.0576C23.7463 12.15 25.3072 10.9793 26.4885 10.0617ZM13.5 16.875C14.7234 16.8961 16.4848 15.3352 17.3707 14.6918C24.3686 9.61348 24.9012 9.17051 26.5148 7.90488C26.8207 7.66758 27 7.29844 27 6.9082V5.90625C27 4.50879 25.8662 3.375 24.4688 3.375H2.53125C1.13379 3.375 0 4.50879 0 5.90625V6.9082C0 7.29844 0.179297 7.6623 0.485156 7.90488C2.09883 9.16523 2.63145 9.61348 9.6293 14.6918C10.5152 15.3352 12.2766 16.8961 13.5 16.875Z" fill="black"/>
</svg>
